<svg xmlns="http://www.w3.org/2000/svg" viewBox="0 0 512 512" fill="none">
  <defs>
    <linearGradient id="bg" x1="0" y1="0" x2="1" y2="1">
      <stop offset="0%" stop-color="#312E81"/>
      <stop offset="100%" stop-color="#4338CA"/>
    </linearGradient>
    <linearGradient id="accent" x1="0" y1="0" x2="1" y2="1">
      <stop offset="0%" stop-color="#6366F1"/>
      <stop offset="100%" stop-color="#8B5CF6"/>
    </linearGradient>
  </defs>
  
  <!-- Background circle -->
  <circle cx="256" cy="256" r="256" fill="url(#bg)"/>
  
  <!-- Document/resume shape -->
  <rect x="128" y="96" width="220" height="290" rx="24" fill="white" opacity="0.95"/>
  
  <!-- Document lines (text placeholder) -->
  <rect x="156" y="140" width="140" height="10" rx="5" fill="#312E81" opacity="0.15"/>
  <rect x="156" y="162" width="110" height="10" rx="5" fill="#312E81" opacity="0.15"/>
  <rect x="156" y="194" width="160" height="10" rx="5" fill="#312E81" opacity="0.15"/>
  <rect x="156" y="216" width="130" height="10" rx="5" fill="#312E81" opacity="0.15"/>
  <rect x="156" y="248" width="150" height="10" rx="5" fill="#312E81" opacity="0.15"/>
  <rect x="156" y="270" width="100" height="10" rx="5" fill="#312E81" opacity="0.15"/>
  
  <!-- Checkmark shield overlay -->
  <path d="M285 320 L265 340 L235 310" stroke="white" stroke-width="28" stroke-linecap="round" stroke-linejoin="round" fill="none"/>
  
  <!-- Shield shape -->
  <path d="M285 140 L330 160 L330 240 Q330 320 285 350 Q240 320 240 240 L240 160 Z" fill="url(#accent)" opacity="0.95"/>
  
  <!-- Checkmark -->
  <path d="M265 255 L280 270 L310 235" stroke="white" stroke-width="16" stroke-linecap="round" stroke-linejoin="round" fill="none"/>
  
  <!-- Sparkle top right -->
  <circle cx="340" cy="120" r="8" fill="#F59E0B"/>
  <circle cx="355" cy="100" r="4" fill="#F59E0B" opacity="0.6"/>
  
  <!-- Sparkle bottom -->
  <circle cx="180" cy="370" r="5" fill="#F59E0B" opacity="0.5"/>
</svg>
